PathFileType	4	(X/Y/Z)	6_coords_data.trc
DataRate	CameraRate	NumFrames	NumMarkers	Units	OrigDataRate	OrigDataStartFrame	OrigNumFrames
30.0	30.0	8	21	m	30.0	51	71
Frame#	Time	THUMB_TIP	THUMB_IP	THUMB_MCP	THUMB_CMC	INDEX_TIP	INDEX_DIP	INDEX_PIP	INDEX_MCP	MIDDLE_TIP	MIDDLE_DIP	MIDDLE_PIP	MIDDLE_MCP	RING_TIP	RING_DIP	RING_PIP	RING_MCP	PINKY_TIP	PINKY_DIP	PINKY_PIP	PINKY_MCP	WRIST
X1	Y1	Z1	X2	Y2	Z2	X3	Y3	Z3	X4	Y4	Z4	X5	Y5	Z5	X6	Y6	Z6	X7	Y7	Z7	X8	Y8	Z8	X9	Y9	Z9	X10	Y10	Z10	X11	Y11	Z11	X12	Y12	Z12	X13	Y13	Z13	X14	Y14	Z14	X15	Y15	Z15	X16	Y16	Z16	X17	Y17	Z17	X18	Y18	Z18	X19	Y19	Z19	X20	Y20	Z20	X21	Y21	Z21
49	1.6666666666666594	0.5097725324526847	-0.017730631470481595	-0.16160060189757583	0.49601518335600125	-0.017637086045981132	-0.14319607541397575	0.4724820657874079	-0.015824486628281398	-0.12290502169925407	0.4723550380141006	-0.022529869452879492	-0.07880386859505062	0.5734773150222328	0.04497884143923836	-0.15537119913870803	0.5581724110202261	0.04187508262846518	-0.1461991440399907	0.5374350609310372	0.03632048832010981	-0.13311791220395905	0.5050394792784101	0.022071898457113437	-0.10942951693741355	0.597246213559658	0.03659895963118076	-0.12998710997342383	0.5810639805343513	0.037598445109737866	-0.12191639977587473	0.5550710487360798	0.03682887909126886	-0.10875642961353651	0.5170112201148419	0.025177513282183983	-0.0884625132565369	0.6061864638662946	0.031234787581455925	-0.09752625222913154	0.5894551489665003	0.030395161707622464	-0.0908660622831981	0.566138870250594	0.027868862660349825	-0.08249056594173172	0.5286318404747083	0.017209141728142252	-0.07179879803187232	0.6055325410682277	0.007432474057483707	-0.05625608013365857	0.5885315110859849	0.005442166016838779	-0.05619563638934902	0.5675970059282502	0.0038924471655128468	-0.05579955018329441	0.5315686191128736	0.0022556445741923614	-0.056199139670941034	0.4622830810018608	-0.023011742144276925	-0.051989820119430985
50	1.6999999999999926	0.507855961425373	-0.016663842895586978	-0.16316941073546892	0.495586402162391	-0.017347389877255925	-0.14375316292555407	0.4725438494231837	-0.015833796239955067	-0.1228828539301901	0.4723914086653338	-0.022601998762578734	-0.07879137860413533	0.5726286832516473	0.04775414597789629	-0.15556837166294413	0.5575456014821815	0.043724358879643654	-0.14638896752768749	0.5371408035595064	0.037035175863412095	-0.13331575501850837	0.5053164361909308	0.021553750357058532	-0.10962670269721085	0.5974268940263433	0.04132180719725986	-0.12914483387462947	0.5810870223309447	0.040713441825393826	-0.12135776224581885	0.5550309542335838	0.03788224918416383	-0.10861118570409817	0.5172567714515734	0.02469336728363003	-0.08872872030452936	0.6064303674954503	0.0347879041612017	-0.09565975438416101	0.5895607900468568	0.03264136162283138	-0.08967563274127356	0.5661904161486804	0.028552571575497177	-0.08210678878672847	0.5288388408960673	0.016670075836034415	-0.0721877689183121	0.605598570942954	0.007575058848747762	-0.05627719417060559	0.5886074368840265	0.005501181268782407	-0.05625731516487156	0.56768106941488	0.0038282721347154824	-0.05594023697987524	0.5316682742439583	0.001924362543651692	-0.056520894578043074	0.462283081001861	-0.023011742144276925	-0.051989820119430985
51	1.7333333333333258	0.5060077861127824	-0.015389325811730914	-0.1644944997207718	0.4952030855190295	-0.016885055073903588	-0.14427022620962587	0.47266237165554226	-0.015764719121294735	-0.12283471674804125	0.47247612085136625	-0.02263922031955856	-0.0787598197667321	0.571783388334988	0.050237505396238946	-0.15553787850228218	0.5569089980672304	0.04544407995741562	-0.14638497804806133	0.5368061171877504	0.03782153126720167	-0.13335498323567713	0.5054807149340886	0.021239070702509966	-0.10974614444028699	0.5972700088560295	0.045287216535172314	-0.12823068426004508	0.5808939539532735	0.04341029679321473	-0.12072721852052351	0.5548856144045814	0.038974600226782785	-0.10834576384465902	0.5173941112805532	0.024403280003239103	-0.08889809710944548	0.6063876911468273	0.03761139355551146	-0.09411646417072542	0.5894959644930533	0.034424222948197136	-0.08868401406289624	0.5661597494395867	0.029140246218369303	-0.08177889741674159	0.5289610359341249	0.016311721755196018	-0.0724834411269006	0.6056116714517644	0.00789509592455262	-0.056394524915967637	0.5886322724717385	0.005727161125279379	-0.05638621930352622	0.567716415719491	0.00392191038253642	-0.05610333226726036	0.5317221421749597	0.0017241167638674115	-0.05678555379375003	0.4622830810018609	-0.023011742144276925	-0.051989820119430985
52	1.7666666666666588	0.5041827297956758	-0.014000836181809584	-0.16564812853588706	0.4948043036889871	-0.016278664595653747	-0.14479491244151768	0.4728174225333145	-0.01562040008122767	-0.12277302004155853	0.47257503752825303	-0.02264470356534809	-0.07872202220867972	0.5710058901244308	0.05237822037219686	-0.15535597312566285	0.5563087210492188	0.04697853066345825	-0.1462545132304604	0.5364692171728592	0.03858453076102519	-0.13329516584805462	0.5055520123656886	0.021088675112593158	-0.10980777399538835	0.5969442770179333	0.04861950701623785	-0.12731442604762672	0.5805907139037744	0.045762304649497265	-0.1200758234126762	0.5546775868301043	0.039996761471923326	-0.1080476104476774	0.5174485503714888	0.024242793199289903	-0.08902238379914738	0.6061714075474092	0.03990538911100383	-0.0929034115612528	0.5893163941268772	0.03589919922195528	-0.08791753499172414	0.5660617062826495	0.029689837118763385	-0.08152665910973585	0.5290167362866528	0.016084217850622307	-0.07273585958261088	0.605580033345979	0.008364821499349473	-0.056569679291223945	0.5886139139696874	0.006095299410269983	-0.056561754860591285	0.5677110831727529	0.004144810699997725	-0.05628019231722656	0.5317389994046028	0.001628317215622621	-0.057028457591239756	0.462283081001861	-0.023011742144276925	-0.051989820119430985
53	1.7999999999999918	0.5024591628293695	-0.012337445918834122	-0.16660629879252392	0.4944060895432735	-0.015450609713107966	-0.14531178724990368	0.4730269961444563	-0.015376996811823584	-0.12268991848126704	0.4726941564323227	-0.02262374909844045	-0.07867555947170703	0.5703434413226811	0.05413042219364672	-0.1551004074025851	0.5557851670951243	0.04826513335123894	-0.1460640896619134	0.536153853622119	0.039284275187093876	-0.13318132788657516	0.505562976477261	0.02103205885637771	-0.10984271334918361	0.5965537828864869	0.05131307707176802	-0.12648421275792315	0.5802548104847419	0.0476863870834211	-0.11947061037572448	0.5544524916832468	0.04088422763462751	-0.10774966667228478	0.5174425810971091	0.02417945068470473	-0.08911193970627795	0.6058993793270688	0.04171566632980661	-0.09192963687423593	0.5891022131044811	0.03709341268354971	-0.08729390843952108	0.5659394590373881	0.03017718577462225	-0.08130787399494979	0.5290291798076437	0.015964437169036505	-0.07292038937459197	0.6055242147294462	0.008873724092394397	-0.05673336251997299	0.5885725940576645	0.006498358089669254	-0.0567194717633403	0.5676832460607835	0.004409569731033902	-0.05642943304517084	0.5317335412447286	0.0016034167124779897	-0.05722169554900197	0.4622830810018608	-0.023011742144276925	-0.051989820119430985
54	1.8333333333333253	0.5009380072655347	-0.010306954117814238	-0.16731071130295241	0.4941094404748495	-0.014341250227548397	-0.14574464697762557	0.4733403568498433	-0.014977122178363445	-0.12257007400983036	0.4728474647123666	-0.022562280220951303	-0.07861427308651897	0.5698658033958035	0.05554091997347499	-0.15471273434581956	0.5553963622131874	0.04934442108133519	-0.1457551301269157	0.5359000152210569	0.03993090081537343	-0.13297671382579399	0.5055217184904429	0.021082277698887708	-0.10983530962554192	0.5961580914109901	0.0534556829911782	-0.1257386723761157	0.5799171848334842	0.04927024558239357	-0.1189038302244731	0.5542155837608519	0.041679887994334974	-0.1074485378236362	0.5173892549660505	0.02421163980741614	-0.08915018451582757	0.6056022622347241	0.04317734733838874	-0.09115528495360399	0.5888659895714411	0.038096002984609356	-0.08678754905286983	0.5657956627241402	0.030629469479390714	-0.0811138487105748	0.5289945013118373	0.01595393335801265	-0.07305010316301618	0.6054387252493292	0.00946187928663933	-0.05689488854572128	0.5885027345415396	0.006977706412478857	-0.056861663902017745	0.5676286590618964	0.004743746803534621	-0.05655439148905947	0.5317022695350826	0.0016595385802089524	-0.05737026292673236	0.4622830810018609	-0.023011742144276925	-0.051989820119430985
55	1.8666666666666587	0.49952004676419337	-0.008019891906048016	-0.1677926194821672	0.49381140831713666	-0.013008417155713325	-0.14610100675018628	0.4736558060469679	-0.014437173912074108	-0.12242548455408842	0.47300143206779977	-0.022467195998081113	-0.07855088438504267	0.5694592658898574	0.056811047801946235	-0.15425860288863608	0.5550532425928995	0.050344921294435574	-0.14538979796596624	0.5356586834394161	0.040569347316325666	-0.13272887139479717	0.5054467187598666	0.02119044097908729	-0.10980876508234308	0.5957465189884064	0.05528250088799602	-0.12507582717365856	0.5795652491679271	0.05065140394817946	-0.11838856703733462	0.553960747902352	0.04243287465548362	-0.1071513591454128	0.5173026317038761	0.02430642784575443	-0.0891579613608612	0.6052792784549543	0.04441388057344786	-0.0905848903421597	0.5886055246164292	0.038971724098181726	-0.08641729321299922	0.5656200566761794	0.03108836694804673	-0.08096743792949253	0.5289248176113024	0.016033819870859944	-0.07312263861578759	0.6053370357792095	0.010105655169095562	-0.057046523854510145	0.5884187687470772	0.007503689833654459	-0.05700161257942518	0.5675609944731751	0.005125098251848592	-0.056673628698859085	0.531660528833865	0.001751457763082498	-0.05748515056133488	0.462283081001861	-0.023011742144276925	-0.051989820119430985
56	1.8999999999999915	0.49830652494891636	-0.005707766738589304	-0.1680648778953766	0.49354647853781586	-0.011582151002326957	-0.14636617821806594	0.47397385731449093	-0.013844240895133919	-0.122270214909555	0.4731384192842738	-0.022374050952991942	-0.07849311606010485	0.5691086532914806	0.05782442734531534	-0.15387814416123882	0.5547499401560961	0.05115703536144578	-0.14508193809105333	0.5354307064845819	0.04109744565902629	-0.1325287831742841	0.5053441626220088	0.021308023820488686	-0.10979522305489514	0.5953795323173061	0.05666271943268619	-0.12459158272413999	0.5792504291079558	0.05171269109011811	-0.11800756806210441	0.5537276617231228	0.043037617764440816	-0.10692871442944807	0.5172083186659	0.024405504714991255	-0.08917118456233504	0.6050044425999389	0.04530314688272441	-0.09026083211523696	0.5883823421072906	0.0396143042740319	-0.08621820364036727	0.5654655957062704	0.03144124020689398	-0.08090748456045048	0.5288563298984967	0.01611392725907501	-0.07319023318347767	0.6052447605254109	0.010658340230382035	-0.05723126875177423	0.5883430654555056	0.007951325669938059	-0.05716216062286694	0.5675004729839197	0.005446965941082849	-0.05680643543134742	0.5316223813263005	0.001835849322290528	-0.05758478417899038	0.4622830810018609	-0.023011742144276925	-0.051989820119430985
